<svg id="Layer_2" data-name="Layer 2" xmlns="http://www.w3.org/2000/svg" viewBox="0 0 485.74 182.66"><defs><style>.cls-1{fill:#6effdb;}.cls-2{fill:#64ffda;}</style></defs><rect class="cls-1" x="458.33" width="27.41" height="134.67"/><path class="cls-1" d="M274,38.88c11.54-.33,25.24,0,25.24,0V12.45h26.21V38.88h85.27c21.35,0,28.81,15.93,28.81,28.35,0,0-.34,47,0,53.77s1.13,13.66,1.13,13.66h-26.1c-.22-7.11-2.25-7.9-2.25-7.9-5.76,11.18-24.23,10-24.23,10-36.94,0-33.94-32.8-33.94-32.8,3.5-22.36,21.12-28.57,40.46-29.78h19c-.45-13.11-7.66-16.19-13.83-16l-74,.52v50.23c0,3.47,4,6.15,5.61,6.48s10.24,0,10.24,0v18.3c-6.54,1-16.95,2.26-19.62,2.26a26.45,26.45,0,0,1-15.25-5.57,16.62,16.62,0,0,1-6.07-11.15,147.3,147.3,0,0,1-1.31-15.13V58.65s-28.76-1.88-36.74,6.63a38,38,0,0,0-10.49,23c-.1,1.08-.68,15.18-.68,15.18l0,30.58H229.92V35.78H251.2V53.53C254.77,47.21,262.49,39.22,274,38.88ZM397.77,90.5c-3.51,0-9.87,1.68-12.88,4.24A13.13,13.13,0,0,0,380.54,105a14,14,0,0,0,3.62,9.49c2,2,6.41,3.54,11.69,3.54s9.41-.83,12.87-4.67,5-10,5-13.18V90.5Z"/><path class="cls-2" d="M167.73,35.57a49.25,49.25,0,1,1-49.25,49.25A49.24,49.24,0,0,1,167.73,35.57ZM141.56,85a26.49,26.49,0,1,0,26.49-26.48A26.49,26.49,0,0,0,141.56,85Z"/><path class="cls-2" d="M108.28,53V166.85L81.17,182.66V128.9L54.06,144.27,0,113.54V53.46L54.06,22.73ZM54.06,53,27.41,68.82V98.18l26.65,14.91L80.72,98.63V68.36Z"/></svg>